<?xml version="1.0" encoding="UTF-8" standalone="no"?>
<svg width="30px" height="30px" viewBox="0 0 30 30" version="1.1" xmlns="http://www.w3.org/2000/svg" xmlns:xlink="http://www.w3.org/1999/xlink">
    <!-- Generator: Sketch 42 (36781) - http://www.bohemiancoding.com/sketch -->
    <title>Group</title>
    <desc>Created with Sketch.</desc>
    <defs></defs>
    <g id="Page-1" stroke="none" stroke-width="1" fill="none" fill-rule="evenodd">
        <g id="Group" fill-rule="nonzero" fill="#CDCCCB">
            <polygon id="Shape" points="9 3 9 0 0 0 0 9 3 9 3 5.1 8.7 10.8 10.8 8.7 5.1 3"></polygon>
            <polygon id="Shape" points="27 24.9 21.3 19.2 19.2 21.3 24.9 27 21 27 21 30 30 30 30 21 27 21"></polygon>
            <polygon id="Shape" points="21 0 21 3 24.9 3 19.2 8.7 21.3 10.8 27 5.1 27 9 30 9 30 0"></polygon>
            <polygon id="Shape" points="8.7 19.2 3 24.9 3 21 0 21 0 30 9 30 9 27 5.1 27 10.8 21.3"></polygon>
        </g>
    </g>
</svg>