<?xml version="1.0" encoding="UTF-8" standalone="no"?>
<svg width="28px" height="27px" viewBox="0 0 28 27" version="1.1" xmlns="http://www.w3.org/2000/svg" xmlns:xlink="http://www.w3.org/1999/xlink">
    <!-- Generator: Sketch 42 (36781) - http://www.bohemiancoding.com/sketch -->
    <title>Shape</title>
    <desc>Created with Sketch.</desc>
    <defs></defs>
    <g id="Page-1" stroke="none" stroke-width="1" fill="none" fill-rule="evenodd">
        <path d="M27.7047913,10.7560026 L17.1511336,0.194261115 C16.8588621,-0.0980870384 16.3859137,-0.0980870384 16.0883282,0.194261115 C16.0883282,0.194261115 4.94481355,11.3619606 4.92355744,11.3832223 C4.85978911,11.4629536 0.948665227,26.0484687 0.948665227,26.0484687 C0.879582876,26.3089244 0.953979254,26.5853262 1.14528423,26.771366 C1.29407698,26.9201978 1.49601001,26.9999291 1.8679919,26.9680366 L16.5240784,22.9921017 C16.5453345,22.9761554 27.6994773,11.8137714 27.6994773,11.8137714 C27.9970628,11.5214232 27.9970628,11.0483507 27.7047913,10.7560026 Z M19.2608023,4.42533621 L23.4748258,8.64578046 L15.7429165,16.3850334 L11.528893,16.3850334 L11.528893,12.1645891 L19.2608023,4.42533621 Z M16.6250449,1.78888741 L18.1979969,3.36756744 L10.4714016,11.101505 L7.32018363,11.101505 L16.6250449,1.78888741 Z M2.73417831,25.1873705 L3.40374571,22.667861 C4.20616379,23.0558867 4.85978911,23.7096835 5.24771309,24.5176275 L2.73417831,25.1873705 Z M6.71969857,24.1242863 C6.16703976,22.8060619 5.11486241,21.7536086 3.79698371,21.2008048 L6.08201533,12.6057691 L6.14578365,12.6057691 L6.14578365,12.6057691 L10.0303374,12.6057691 L10.0303374,17.1345078 C10.0303374,17.5491106 10.3651211,17.8839821 10.7796152,17.8839821 L15.3018522,17.8839821 L15.3018522,21.7695548 L15.3018522,21.7695548 L15.3018522,21.8333399 L6.71969857,24.1242863 Z M16.8057219,17.4428022 L24.5376312,9.70886466 L26.1158972,11.2875447 L16.8057219,20.6001622 L16.8057219,17.4428022 Z" id="Shape" fill="#4F80FF" fill-rule="nonzero"></path>
    </g>
</svg>