<?xml version="1.0" encoding="UTF-8" standalone="no"?>
<svg width="27px" height="27px" viewBox="0 0 27 27" version="1.1" xmlns="http://www.w3.org/2000/svg" xmlns:xlink="http://www.w3.org/1999/xlink">
    <!-- Generator: Sketch 42 (36781) - http://www.bohemiancoding.com/sketch -->
    <title>Group 2</title>
    <desc>Created with Sketch.</desc>
    <defs></defs>
    <g id="Page-1" stroke="none" stroke-width="1" fill="none" fill-rule="evenodd">
        <g id="Group-2">
            <g id="Group" fill-rule="nonzero" fill="#4F80FF">
                <g transform="translate(0.000000, 14.494737)" id="Shape">
                    <path d="M11.1078,4.83783158 C9.52133684,6.61016842 5.98263158,9.96811579 1.10472632,11.1018316 C2.21286316,6.16452632 5.57507368,2.65537895 7.35536842,1.08511579 L11.1078,4.83783158 Z"></path>
                    <path d="M1.10472632,11.9411053 C0.8856,11.9411053 0.672157895,11.8552737 0.513284211,11.6978211 C0.308084211,11.4940421 0.222252632,11.1998842 0.285631579,10.9176632 C1.43412632,5.80158947 4.86,2.16738947 6.79973684,0.455873684 C7.13169474,0.163989474 7.6356,0.1782 7.9488,0.492252632 L11.7015158,4.2444 C12.0164211,4.55930526 12.0306316,5.06605263 11.7333474,5.39801053 C10.0039263,7.32978947 6.34784211,10.7448632 1.29486316,11.9192211 C1.23176842,11.934 1.16753684,11.9411053 1.10472632,11.9411053 Z M7.32978947,2.24696842 C5.71575789,3.78170526 3.45969474,6.40297895 2.31091579,9.88569474 C5.75981053,8.72156842 8.39216842,6.46891579 9.94225263,4.85943158 L7.32978947,2.24696842 Z"></path>
                </g>
                <path d="M7.35536842,16.4196947 C7.14022105,16.4196947 6.92535789,16.3375579 6.76136842,16.1735684 L5.48526316,14.8977474 C5.15756842,14.5700526 5.15756842,14.0388632 5.48526316,13.7106 L8.34555789,10.8503053 L10.8173368,4.266 C10.8588316,4.15402105 10.9247684,4.05227368 11.0094632,3.96757895 L12.9156632,2.06166316 C13.2430737,1.73396842 13.7742632,1.73396842 14.1025263,2.06166316 C14.4305053,2.38964211 14.4305053,2.92111579 14.1025263,3.24881053 L12.3256421,5.02597895 L9.85357895,11.6105684 C9.81208421,11.7225474 9.74614737,11.8242947 9.66145263,11.9089895 L7.26612632,14.3040316 L7.94851579,14.9867053 C8.27621053,15.3144 8.27621053,15.8455895 7.94851579,16.1735684 C7.78481053,16.3375579 7.56994737,16.4196947 7.35536842,16.4196947 Z" id="Shape"></path>
                <path d="M12.3836211,21.4488 C12.1690421,21.4488 11.9541789,21.3669474 11.7901895,21.2026737 L10.5140842,19.9265684 C10.1861053,19.5983053 10.1861053,19.0671158 10.5140842,18.7391368 C10.8420632,18.4117263 11.3732526,18.4117263 11.7015158,18.7391368 L12.3836211,19.4218105 L14.7789474,17.0270526 C14.8644947,16.9415053 14.9665263,16.8755684 15.0799263,16.8337895 L21.6750316,14.3784947 L23.4513474,12.6021789 C23.7796105,12.2744842 24.3108,12.2744842 24.6390632,12.6021789 C24.9664737,12.9298737 24.9664737,13.4613474 24.6390632,13.7896105 L22.7334316,15.6952421 C22.6478842,15.7807895 22.545,15.8461579 22.4324526,15.8885053 L15.8373474,18.3438 L12.9773368,21.2026737 C12.8133474,21.3669474 12.5984842,21.4488 12.3836211,21.4488 Z" id="Shape"></path>
                <path d="M24.0453474,14.0581895 C23.8302,14.0581895 23.6156211,13.9766211 23.4513474,13.8123474 L12.9145263,3.27552632 C12.5868316,2.94783158 12.5868316,2.41635789 12.9145263,2.08837895 L14.4805263,0.522378947 C14.8082211,0.1944 15.3394105,0.1944 15.6676737,0.522378947 C15.9956526,0.850073684 15.9956526,1.38183158 15.6676737,1.70952632 L14.6953895,2.68181053 L24.0450632,12.0312 L25.0176316,11.0592 C25.3450421,10.7312211 25.8762316,10.7312211 26.2047789,11.0592 C26.5324737,11.3868947 26.5324737,11.9186526 26.2047789,12.2463474 L24.6387789,13.8120632 C24.4745053,13.9766211 24.2599263,14.0581895 24.0453474,14.0581895 Z" id="Shape"></path>
                <path d="M22.1388632,15.9643895 C21.924,15.9643895 21.7088526,15.8828211 21.5451474,15.7185474 L11.0083263,5.18172632 C10.6806316,4.85403158 10.6806316,4.32227368 11.0083263,3.99457895 C11.3360211,3.6666 11.8672105,3.6666 12.1957579,3.99457895 L22.7322947,14.5316842 C23.0605579,14.8590947 23.0605579,15.3902842 22.7322947,15.7185474 C22.5685895,15.8828211 22.3534421,15.9643895 22.1388632,15.9643895 Z" id="Shape"></path>
            </g>
            <rect id="Rectangle" x="0" y="0" width="27" height="27"></rect>
        </g>
    </g>
</svg>