<?xml version="1.0" encoding="UTF-8" standalone="no"?>
<svg width="27px" height="26px" viewBox="0 0 27 26" version="1.1" xmlns="http://www.w3.org/2000/svg" xmlns:xlink="http://www.w3.org/1999/xlink">
    <!-- Generator: Sketch 42 (36781) - http://www.bohemiancoding.com/sketch -->
    <title>Group 2</title>
    <desc>Created with Sketch.</desc>
    <defs></defs>
    <g id="Page-1" stroke="none" stroke-width="1" fill="none" fill-rule="evenodd">
        <g id="Group-2">
            <g id="Group" fill-rule="nonzero" fill="#4F80FF">
                <path d="M8.02828125,23.7119063 C7.92154688,23.7119063 7.81903125,23.6692969 7.74351563,23.5937812 L3.4408125,19.2910781 C3.36107813,19.2117656 3.31804688,19.1016562 3.32310938,18.9885937 C3.32817188,18.8755312 3.3800625,18.7700625 3.46654688,18.6975 C3.49565625,18.6726094 6.44329688,16.1253281 6.5475,11.0737969 C6.55003125,10.9691719 6.59179688,10.8704531 6.665625,10.796625 L17.0956406,0.366609375 C17.24625,0.215578125 17.5141406,0.215578125 17.6655937,0.366609375 L26.6679844,9.36942187 C26.8257656,9.52678125 26.8257656,9.78201562 26.6679844,9.939375 L16.2383906,20.3685469 C16.1645625,20.4427969 16.0658437,20.4845625 15.9616406,20.4866719 C10.8890156,20.5912969 8.36198438,23.5376719 8.33751563,23.567625 C8.26453125,23.6541094 8.1590625,23.7064219 8.04642188,23.7114844 C8.04009375,23.7114844 8.0341875,23.7119063 8.02828125,23.7119063 Z M4.303125,19.0130625 L8.02110938,22.7314687 C8.85557813,21.9147188 11.4087656,19.8251719 15.7823437,19.6851094 L25.8132656,9.6541875 L17.3804063,1.22132813 L7.34948438,11.2526719 C7.20942188,15.62625 5.11903125,18.1794375 4.303125,19.0130625 Z" id="Shape"></path>
                <rect id="Rectangle-path" transform="translate(12.790916, 14.243274) rotate(45.000000) translate(-12.790916, -14.243274) " x="6.42488328" y="13.8401768" width="12.7320654" height="0.806195393"></rect>
                <rect id="Rectangle-path" transform="translate(14.585575, 12.448489) rotate(45.000000) translate(-14.585575, -12.448489) " x="8.21975334" y="12.0456019" width="12.7316435" height="0.805773523"></rect>
                <rect id="Rectangle-path" transform="translate(16.380358, 10.654257) rotate(45.000000) translate(-16.380358, -10.654257) " x="10.014536" y="10.2513705" width="12.7316435" height="0.805773523"></rect>
                <path d="M5.26879687,25.0589531 C5.22871875,25.0589531 5.18821875,25.0530469 5.1485625,25.0408125 L0.49696875,23.5904063 C0.362390625,23.5482188 0.259453125,23.4389531 0.225703125,23.3018438 C0.191953125,23.1647344 0.23203125,23.0204531 0.332015625,22.9204687 L3.89559375,19.3573125 L4.46554687,19.9272656 L1.373625,23.0191875 L5.15615625,24.1991719 L6.94659375,22.4087344 L7.51654687,22.9786875 L5.55398437,24.9416719 C5.47678125,25.0180312 5.37384375,25.0589531 5.26879687,25.0589531 Z" id="Shape"></path>
            </g>
            <rect id="Rectangle" x="0" y="0" width="27" height="27"></rect>
        </g>
    </g>
</svg>