<?xml version="1.0" encoding="UTF-8" standalone="no"?>
<svg width="21px" height="28px" viewBox="0 0 21 28" version="1.1" xmlns="http://www.w3.org/2000/svg" xmlns:xlink="http://www.w3.org/1999/xlink">
    <!-- Generator: Sketch 42 (36781) - http://www.bohemiancoding.com/sketch -->
    <title>Group 2</title>
    <desc>Created with Sketch.</desc>
    <defs></defs>
    <g id="Page-1" stroke="none" stroke-width="1" fill="none" fill-rule="evenodd">
        <g id="Group-2" transform="translate(-3.000000, 0.000000)">
            <g id="Group" transform="translate(3.000000, 0.637820)" fill-rule="nonzero" fill="#4F80FF">
                <path d="M18.6628901,0.594017419 C17.8530933,0.12806129 17.0750868,0.0384880645 16.4510094,0.146084516 C15.826961,0.253686774 15.3512675,0.525971613 15.1335836,0.9018 C13.7897965,3.57890226 12.447403,6.26071935 11.1050675,8.93997 C10.8560868,9.27823645 10.5279062,9.49852161 10.2221385,9.63250839 C9.85087394,9.79228742 9.41536103,9.91989581 9.00966426,10.0623774 L6.35501265,8.53497 C6.0809191,8.37725226 5.72039652,8.47356387 5.56205458,8.74685323 L2.659032,13.7578355 C2.50069006,14.0311161 2.59725135,14.3904484 2.87140297,14.5481806 L3.86883523,15.1220613 C2.36400619,17.6489129 1.1822191,18.621029 0.035532,20.6000129 C-0.0404454194,20.7312097 0.0102739355,20.9194548 0.141702968,20.995171 L10.194761,26.7794129 C10.3263643,26.855129 10.5152772,26.804671 10.5912836,26.6734742 C11.7379417,24.6945194 11.9917997,23.1885 13.4349933,20.6261419 L14.4324255,21.2000516 C14.7065481,21.3577839 15.0670707,21.2614548 15.2253836,20.9881742 L18.1284352,15.9771774 C18.2867481,15.7038968 18.1902159,15.3445935 17.9160933,15.1868613 L15.2693094,13.6639742 C15.1975707,13.1964387 15.0840255,12.7534094 15.0312159,12.3577577 C15.0155385,11.9632413 15.0024739,11.56131 15.1622675,11.2639181 C16.8215481,8.76998032 18.5056514,6.2894671 20.1600836,3.79392097 C20.3778255,3.41810129 20.3766062,2.87142968 20.1571804,2.27902645 C19.9386546,1.68662613 19.4718159,1.05996774 18.6620191,0.594017419 L18.6628901,0.594017419 Z M4.37149974,15.4112806 L12.9323288,20.3369516 C11.5211578,22.8369484 11.1949514,24.3456968 10.2180449,26.1246774 L0.699006194,20.6477129 C1.75685458,18.9153 2.90479006,17.879371 4.37149974,15.4112806 L4.37149974,15.4112806 Z" id="Shape"></path>
            </g>
            <rect id="Rectangle" x="0" y="0.640000105" width="27" height="27"></rect>
        </g>
    </g>
</svg>