<svg id="svg22907" xmlns="http://www.w3.org/2000/svg" viewBox="0 0 16 16" style="isolation:isolate" width="16" height="16" preserveAspectRatio="xMinYMid meet"><style>.st0{fill:url(#path6127_00000051345935690609143770000004437142692518942363_)}.st0,.st1{fill-rule:evenodd;clip-rule:evenodd}.st2{fill:none}.st3{stroke:url(#path6013_00000147216578923239838050000014170196469018752683_);stroke-width:1.0024;stroke-linejoin:round}.st3,.st4,.st5,.st6{fill:none;stroke-linecap:round}.st4{stroke-linejoin:round;stroke:#000;stroke-width:.9846}.st5,.st6{stroke:url(#path6115_00000111906732893461553130000012784609538065405583_);stroke-width:1.0024}.st6{stroke:#fff}</style><g id="layer1" transform="translate(-338 -520.361)"><g id="draw-freehand" transform="matrix(1 0 0 .99526 265 407.897)"><linearGradient id="path6127_00000071534700755928725820000003210450634407123601_" gradientUnits="userSpaceOnUse" x1="435.359" y1="-305.04" x2="433.649" y2="-303.114" gradientTransform="matrix(.9776 -.2107 -.2097 -.9729 -405.4 -81.514)"><stop offset="0" stop-color="#ffbf00"/><stop offset="1" stop-color="#fff"/></linearGradient><path id="path6127" d="M80.7 124.9l1.9.6 3.4-3.8c-.7-1.8-3-3-5.3-2v5.2z" fill-rule="evenodd" clip-rule="evenodd" fill="url(#path6127_00000071534700755928725820000003210450634407123601_)"/><path id="path6021" class="st1" d="M80.7 126.9l.7.2 1.2-1.5c-.2-.6-1.3-1.3-1.9-.7v2z"/><path id="path6019" class="st1" d="M80.7 120c1.4-1.3 4.5-.6 5.4 1.8l1.8-4.7c-1.6 0-.3-3.9-4.5-3.9-.1.1-2.7 6.8-2.7 6.8z"/><path id="rect6011" class="st2" d="M73.2 113.2h15.6v15.6H73.2z"/><linearGradient id="path6013_00000164503809715788312000000001754408335175167634_" gradientUnits="userSpaceOnUse" x1="146.706" y1="12.97" x2="153.939" y2="3.865" gradientTransform="matrix(1 0 0 -.9953 -72.697 128.045)"><stop offset="0" stop-color="#5a5a5a"/><stop offset="1"/></linearGradient><path id="path6013" d="M74.2 114.2c5.7-.7 2 3.3 1.3 4.4-3.5 5.2.5 1.4 2.5 2.1 1.2.4.7 2.1.3 3-.3 1-.5 2.3 0 3.2.6 1.3 2.3 1.6 3.2 1.6 1 0 2.3-.3 3.2-1.1 1-.8 1.8-2.1 1.9-2.7" fill="none" stroke="url(#path6013_00000164503809715788312000000001754408335175167634_)" stroke-width="1.002" stroke-linecap="round" stroke-linejoin="round"/><path id="path6023" class="st4" d="M87.8 117.5l-1.8 4.4-4.3 4.6c-1.1 1.1-1.1.8-1.1-.4v-6l2.6-6.4"/><linearGradient id="path6115_00000054260308774996523170000007390390727160156054_" gradientUnits="userSpaceOnUse" x1="27.679" y1="-181.195" x2="23.45" y2="-178.438" gradientTransform="matrix(.9775 -.2107 -.2097 -.9729 20.89 -49.407)"><stop offset="0"/><stop offset="1" stop-opacity="0"/></linearGradient><path id="path6115" d="M86 121.9c-.4-.7-.7-1.3-1.1-2-.7-.3-1.4-.5-2.1-.8-.8.2-1.6.4-2.3.6" fill="none" stroke="url(#path6115_00000054260308774996523170000007390390727160156054_)" stroke-width="1.002" stroke-linecap="round"/><path id="path6125" class="st6" d="M83 118.3l1.6-3.9"/></g></g></svg>
